<svg width="199px" height="46px" viewBox="0 0 199 46" version="1.1" xmlns="http://www.w3.org/2000/svg" xmlns:xlink="http://www.w3.org/1999/xlink">
    <!-- Generator: Sketch 55.2 (78181) - https://sketchapp.com -->
    <title>Logo_right</title>
    <desc>Created with Sketch.</desc>
    <defs>
        <path d="M12.5258743,13.4196728 L11.0390388,10.2046951 L4.07346638,10.2046951 L2.58663088,13.4196728 L0,13.4196728 L6.35459181,0.00751380698 L8.85977878,0.00751380698 L15.2143403,13.4196728 L12.5258743,13.4196728 Z M7.5702723,2.45282456 L5.02220943,8.15854964 L10.1182749,8.15854964 L7.5702723,2.45282456 Z M27.0354298,0.00751380698 C30.2226217,0.00751380698 31.9796571,1.50652656 31.9796571,4.24813228 C31.9796571,7.00944672 30.2226217,8.50845357 27.0354298,8.50845357 L21.6008231,8.50845357 L21.6008231,13.4196728 L19.1287095,13.4196728 L19.1287095,0.00751380698 L27.0354298,0.00751380698 Z M26.7162746,6.45424214 C28.5715148,6.45424214 29.4685524,5.74846287 29.4685524,4.2584945 C29.4685524,2.78810513 28.5715148,2.08232293 26.7162746,2.08232293 L21.6398142,2.08232293 L21.6398142,6.45424214 L26.7162746,6.45424214 Z M44.1700266,0.00751380698 C47.3572185,0.00751380698 49.114254,1.50652656 49.114254,4.24813228 C49.114254,7.00944672 47.3572185,8.50845357 44.1700266,8.50845357 L38.73542,8.50845357 L38.73542,13.4196728 L36.2633063,13.4196728 L36.2633063,0.00751380698 L44.1700266,0.00751380698 Z M43.8508715,6.45424214 C45.7061117,6.45424214 46.6031493,5.74846287 46.6031493,4.2584945 C46.6031493,2.78810513 45.7061117,2.08232293 43.8508715,2.08232293 L38.7744111,2.08232293 L38.7744111,6.45424214 L43.8508715,6.45424214 Z M70.5766873,13.4196728 L69.0899182,10.2046951 L62.1242827,10.2046951 L60.6375137,13.4196728 L58.0508326,13.4196728 L64.4054293,0.00751380698 L66.9106063,0.00751380698 L73.2651729,13.4196728 L70.5766873,13.4196728 Z M65.6210596,2.45282456 L63.073042,8.15854964 L68.1691074,8.15854964 L65.6210596,2.45282456 Z M88.1166788,0.00751380698 L90.4736258,0.00751380698 L90.4736258,13.4196728 L88.1775872,13.4196728 L79.6842615,2.68993439 L79.6842615,13.4196728 L77.327254,13.4196728 L77.327254,0.00751380698 L80.4157664,0.00751380698 L88.1166788,9.73132602 L88.1166788,0.00751380698 Z M106.35905,0.00751380698 L108.716063,0.00751380698 L108.716063,13.4196728 L106.420019,13.4196728 L97.9267041,2.68993439 L97.9267041,13.4196728 L95.5696913,13.4196728 L95.5696913,0.00751380698 L98.6581804,0.00751380698 L106.35905,9.73132602 L106.35905,0.00751380698 Z M113.885984,13.4196728 L113.885984,0.00751380698 L116.323233,0.00751380698 L116.323233,13.4196728 L113.885984,13.4196728 Z M133.753254,2.05878354 L123.953363,2.05878354 L123.953363,5.62878065 L132.431669,5.62878065 L132.431669,7.68005629 L123.953363,7.68005629 L123.953363,11.3684001 L133.753254,11.3684001 L133.753254,13.4196728 L121.493155,13.4196728 L121.493155,0.00751380698 L133.753254,0.00751380698 L133.753254,2.05878354 Z" id="path-1"></path>
        <linearGradient x1="50%" y1="39.553516%" x2="100%" y2="39.553516%" id="linearGradient-3">
            <stop stop-color="#0F2346" offset="0%"></stop>
            <stop stop-color="#FD1F6D" offset="100%"></stop>
        </linearGradient>
        <path d="M17.4507365,0 L34.126624,0 L51.5773488,17.757674 L25.7890723,44 L0,17.757674 L17.4507365,0 Z M19.9236942,2.10642752 L25.767313,7.89911695 L31.6105236,2.10642752 L19.9236942,2.10642752 Z M27.3411667,9.52343938 L34.4451718,16.6759029 L47.609858,16.6759029 L33.9233071,2.89634472 L27.3411667,9.52343938 Z M17.6260729,2.89634472 L3.96748889,16.6759029 L17.1877088,16.6759029 L24.2361802,9.56448834 L17.6260729,2.89634472 Z M18.8455713,17.9493531 L25.724584,39.0128194 L32.6023963,17.9493531 L25.724584,10.9271099 L18.8455713,17.9493531 Z M3.96748889,18.7823304 L23.2874339,38.3545614 L16.847053,18.7823304 L3.96748889,18.7823304 Z M34.7152696,18.7823304 L28.3330394,38.3545614 L47.4804869,18.7823304 L34.7152696,18.7823304 Z" id="path-4"></path>
    </defs>
    <g id="Page-1" stroke="none" stroke-width="1" fill="none" fill-rule="evenodd">
        <g id="Logo_3" transform="translate(-66.000000, -27.000000)">
            <g id="Logo_right" transform="translate(67.000000, 28.000000)">
                <g id="Logo" transform="translate(63.245732, 11.516399)">
                    <mask id="mask-2" fill="white">
                        <use xlink:href="#path-1"></use>
                    </mask>
                    <use id="Clip-7" stroke="#0F2346" stroke-width="0.5" fill="#0F2346" xlink:href="#path-1"></use>
                </g>
                <mask id="mask-5" fill="white">
                    <use xlink:href="#path-4"></use>
                </mask>
                <use id="Clip-2" stroke="url(#linearGradient-3)" stroke-width="0.5" fill="url(#linearGradient-3)" transform="translate(25.788674, 22.000000) scale(-1, 1) translate(-25.788674, -22.000000) " xlink:href="#path-4"></use>
            </g>
        </g>
    </g>
</svg>