<svg width="151" height="34" viewBox="0 0 151 34" xmlns="http://www.w3.org/2000/svg" xmlns:xlink="http://www.w3.org/1999/xlink"><defs><path d="M9.49 10.065L8.362 7.654H3.086l-1.126 2.41H0L4.814.007h1.898l4.814 10.059H9.489zM5.734 1.84l-1.93 4.279h3.86l-1.93-4.28zM20.481.006c2.415 0 3.746 1.124 3.746 3.18 0 2.071-1.331 3.195-3.746 3.195h-4.117v3.684h-1.873V.005h5.99zM20.24 4.84c1.405 0 2.085-.53 2.085-1.647 0-1.103-.68-1.632-2.085-1.632h-3.846V4.84h3.846zM33.462.006c2.415 0 3.746 1.124 3.746 3.18 0 2.071-1.331 3.195-3.746 3.195h-4.117v3.684h-1.873V.005h5.99zM33.22 4.84c1.406 0 2.085-.53 2.085-1.647 0-1.103-.68-1.632-2.085-1.632h-3.845V4.84h3.845zm20.247 5.224l-1.126-2.411h-5.277l-1.126 2.41h-1.96L48.792.007h1.898l4.814 10.059h-2.037zM49.713 1.84l-1.93 4.279h3.86l-1.93-4.28zM66.755.006h1.786v10.059H66.8l-6.434-8.048v8.048H58.58V.005h2.34l5.834 7.293V.006zm13.82 0h1.786v10.059h-1.74l-6.434-8.048v8.048H72.4V.005h2.34l5.834 7.293V.006zm5.702 10.059V.005h1.847v10.06h-1.847zm15.051-8.52h-7.424v2.677h6.423V5.76h-6.423v2.766h7.424v1.539H92.04V.005h9.288v1.54z" id="a"/><path d="M13.22 0h12.634l13.22 13.318L19.537 33 0 13.318 13.22 0zm1.874 1.58l4.427 4.344 4.426-4.344h-8.853zm5.619 5.563l5.382 5.364h9.973L25.7 2.172l-4.986 4.97zm-7.36-4.97L3.006 12.506H13.02l5.34-5.334-5.008-5zm.924 11.289l5.211 15.798 5.21-15.798-5.21-5.267-5.211 5.267zm-11.271.625l14.636 14.679-4.88-14.68H3.007zm23.293 0l-4.835 14.679 14.506-14.68H26.3z" id="b"/></defs><g transform="translate(1 1)" fill="currentColor" fill-rule="evenodd" stroke="currentColor" stroke-width=".5"><use xlink:href="#a" transform="translate(47.913 8.637)"/><use transform="matrix(-1 0 0 1 39.074 0)" xlink:href="#b"/></g></svg>